<svg xmlns="http://www.w3.org/2000/svg" width="480" height="320" viewBox="0 0 120 80" role="img" aria-labelledby="title2 desc2">
  <title id="title2">Dark Chat logo - moon bubble</title>
  <desc id="desc2">Speech bubble with crescent moon, dark theme, cyan accent</desc>
  <rect width="120" height="80" rx="12" fill="#071027"/>
  <g transform="translate(8,6)">
    <path d="M68 8c-11 0-20 9-20 20s9 20 20 20c11 0 20-9 20-20S79 8 68 8z" fill="#051226"/>
    <path d="M74 12c-6 0-11 5-11 11s5 11 11 11c2 0 3-0.5 4-1.2-3 0.8-6-0.6-7.6-3.1-2.1-3.1-0.6-7.1 2.5-9.2 2.6-1.7 5.6-1.6 8.6-0.1-0.8-1.7-2.4-2.6-6.5-2.6z" fill="#06b6d4"/>
    <path d="M20 48 L24 38 L30 46 Z" fill="#051226"/>
    <text x="6" y="62" font-family="Inter, Arial, sans-serif" font-size="8" fill="#dbeafe">Dark Chat</text>
  </g>
</svg>